<svg width="158" height="36" viewBox="0 0 158 36" fill="none" xmlns="http://www.w3.org/2000/svg">
<path d="M0.84 17.6C0.84 15.952 1.208 14.48 1.944 13.184C2.696 11.872 3.712 10.856 4.992 10.136C6.288 9.4 7.736 9.032 9.336 9.032C11.208 9.032 12.848 9.512 14.256 10.472C15.664 11.432 16.648 12.76 17.208 14.456H13.344C12.96 13.656 12.416 13.056 11.712 12.656C11.024 12.256 10.224 12.056 9.312 12.056C8.336 12.056 7.464 12.288 6.696 12.752C5.944 13.2 5.352 13.84 4.92 14.672C4.504 15.504 4.296 16.48 4.296 17.6C4.296 18.704 4.504 19.68 4.92 20.528C5.352 21.36 5.944 22.008 6.696 22.472C7.464 22.92 8.336 23.144 9.312 23.144C10.224 23.144 11.024 22.944 11.712 22.544C12.416 22.128 12.96 21.52 13.344 20.72H17.208C16.648 22.432 15.664 23.768 14.256 24.728C12.864 25.672 11.224 26.144 9.336 26.144C7.736 26.144 6.288 25.784 4.992 25.064C3.712 24.328 2.696 23.312 1.944 22.016C1.208 20.72 0.84 19.248 0.84 17.6ZM25.9819 26.216C24.7019 26.216 23.5499 25.936 22.5259 25.376C21.5019 24.8 20.6939 23.992 20.1019 22.952C19.5259 21.912 19.2379 20.712 19.2379 19.352C19.2379 17.992 19.5339 16.792 20.1259 15.752C20.7339 14.712 21.5579 13.912 22.5979 13.352C23.6379 12.776 24.7979 12.488 26.0779 12.488C27.3579 12.488 28.5179 12.776 29.5579 13.352C30.5979 13.912 31.4139 14.712 32.0059 15.752C32.6139 16.792 32.9179 17.992 32.9179 19.352C32.9179 20.712 32.6059 21.912 31.9819 22.952C31.3739 23.992 30.5419 24.8 29.4859 25.376C28.4459 25.936 27.2779 26.216 25.9819 26.216ZM25.9819 23.288C26.5899 23.288 27.1579 23.144 27.6859 22.856C28.2299 22.552 28.6619 22.104 28.9819 21.512C29.3019 20.92 29.4619 20.2 29.4619 19.352C29.4619 18.088 29.1259 17.12 28.4539 16.448C27.7979 15.76 26.9899 15.416 26.0299 15.416C25.0699 15.416 24.2619 15.76 23.6059 16.448C22.9659 17.12 22.6459 18.088 22.6459 19.352C22.6459 20.616 22.9579 21.592 23.5819 22.28C24.2219 22.952 25.0219 23.288 25.9819 23.288ZM34.5186 19.304C34.5186 17.96 34.7826 16.768 35.3106 15.728C35.8546 14.688 36.5906 13.888 37.5186 13.328C38.4466 12.768 39.4786 12.488 40.6146 12.488C41.4786 12.488 42.3026 12.68 43.0866 13.064C43.8706 13.432 44.4946 13.928 44.9586 14.552V8.24H48.3666V26H44.9586V24.032C44.5426 24.688 43.9586 25.216 43.2066 25.616C42.4546 26.016 41.5826 26.216 40.5906 26.216C39.4706 26.216 38.4466 25.928 37.5186 25.352C36.5906 24.776 35.8546 23.968 35.3106 22.928C34.7826 21.872 34.5186 20.664 34.5186 19.304ZM44.9826 19.352C44.9826 18.536 44.8226 17.84 44.5026 17.264C44.1826 16.672 43.7506 16.224 43.2066 15.92C42.6626 15.6 42.0786 15.44 41.4546 15.44C40.8306 15.44 40.2546 15.592 39.7266 15.896C39.1986 16.2 38.7666 16.648 38.4306 17.24C38.1106 17.816 37.9506 18.504 37.9506 19.304C37.9506 20.104 38.1106 20.808 38.4306 21.416C38.7666 22.008 39.1986 22.464 39.7266 22.784C40.2706 23.104 40.8466 23.264 41.4546 23.264C42.0786 23.264 42.6626 23.112 43.2066 22.808C43.7506 22.488 44.1826 22.04 44.5026 21.464C44.8226 20.872 44.9826 20.168 44.9826 19.352ZM64.0082 19.064C64.0082 19.544 63.9762 19.976 63.9122 20.36H54.1922C54.2722 21.32 54.6082 22.072 55.2002 22.616C55.7922 23.16 56.5202 23.432 57.3842 23.432C58.6322 23.432 59.5202 22.896 60.0482 21.824H63.6722C63.2882 23.104 62.5522 24.16 61.4642 24.992C60.3762 25.808 59.0402 26.216 57.4562 26.216C56.1762 26.216 55.0242 25.936 54.0002 25.376C52.9922 24.8 52.2002 23.992 51.6242 22.952C51.0642 21.912 50.7842 20.712 50.7842 19.352C50.7842 17.976 51.0642 16.768 51.6242 15.728C52.1842 14.688 52.9682 13.888 53.9762 13.328C54.9842 12.768 56.1442 12.488 57.4562 12.488C58.7202 12.488 59.8482 12.76 60.8402 13.304C61.8482 13.848 62.6242 14.624 63.1682 15.632C63.7282 16.624 64.0082 17.768 64.0082 19.064ZM60.5282 18.104C60.5122 17.24 60.2002 16.552 59.5922 16.04C58.9842 15.512 58.2402 15.248 57.3602 15.248C56.5282 15.248 55.8242 15.504 55.2482 16.016C54.6882 16.512 54.3442 17.208 54.2162 18.104H60.5282ZM65.5967 19.352C65.5967 17.976 65.8767 16.776 66.4367 15.752C66.9967 14.712 67.7727 13.912 68.7647 13.352C69.7567 12.776 70.8927 12.488 72.1727 12.488C73.8207 12.488 75.1807 12.904 76.2527 13.736C77.3407 14.552 78.0687 15.704 78.4367 17.192H74.8127C74.6207 16.616 74.2927 16.168 73.8287 15.848C73.3807 15.512 72.8207 15.344 72.1487 15.344C71.1887 15.344 70.4287 15.696 69.8687 16.4C69.3087 17.088 69.0287 18.072 69.0287 19.352C69.0287 20.616 69.3087 21.6 69.8687 22.304C70.4287 22.992 71.1887 23.336 72.1487 23.336C73.5087 23.336 74.3967 22.728 74.8127 21.512H78.4367C78.0687 22.952 77.3407 24.096 76.2527 24.944C75.1647 25.792 73.8047 26.216 72.1727 26.216C70.8927 26.216 69.7567 25.936 68.7647 25.376C67.7727 24.8 66.9967 24 66.4367 22.976C65.8767 21.936 65.5967 20.728 65.5967 19.352ZM80.0342 19.304C80.0342 17.96 80.2982 16.768 80.8262 15.728C81.3702 14.688 82.0982 13.888 83.0102 13.328C83.9382 12.768 84.9702 12.488 86.1062 12.488C87.0982 12.488 87.9622 12.688 88.6982 13.088C89.4502 13.488 90.0502 13.992 90.4982 14.6V12.704H93.8822V26H90.4982V24.056C90.0662 24.68 89.4662 25.2 88.6982 25.616C87.9462 26.016 87.0742 26.216 86.0822 26.216C84.9622 26.216 83.9382 25.928 83.0102 25.352C82.0982 24.776 81.3702 23.968 80.8262 22.928C80.2982 21.872 80.0342 20.664 80.0342 19.304ZM90.4982 19.352C90.4982 18.536 90.3382 17.84 90.0182 17.264C89.6982 16.672 89.2662 16.224 88.7222 15.92C88.1782 15.6 87.5942 15.44 86.9702 15.44C86.3462 15.44 85.7702 15.592 85.2422 15.896C84.7142 16.2 84.2822 16.648 83.9462 17.24C83.6262 17.816 83.4662 18.504 83.4662 19.304C83.4662 20.104 83.6262 20.808 83.9462 21.416C84.2822 22.008 84.7142 22.464 85.2422 22.784C85.7862 23.104 86.3622 23.264 86.9702 23.264C87.5942 23.264 88.1782 23.112 88.7222 22.808C89.2662 22.488 89.6982 22.04 90.0182 21.464C90.3382 20.872 90.4982 20.168 90.4982 19.352ZM104.532 12.512C106.116 12.512 107.396 13.016 108.372 14.024C109.348 15.016 109.836 16.408 109.836 18.2V26H106.476V18.656C106.476 17.6 106.212 16.792 105.684 16.232C105.156 15.656 104.436 15.368 103.524 15.368C102.596 15.368 101.86 15.656 101.316 16.232C100.788 16.792 100.524 17.6 100.524 18.656V26H97.1638V12.704H100.524V14.36C100.972 13.784 101.54 13.336 102.228 13.016C102.932 12.68 103.7 12.512 104.532 12.512ZM125.751 12.704L117.519 32.288H113.943L116.823 25.664L111.495 12.704H115.263L118.695 21.992L122.175 12.704H125.751ZM133.466 26.216C132.186 26.216 131.034 25.936 130.01 25.376C128.986 24.8 128.178 23.992 127.586 22.952C127.01 21.912 126.722 20.712 126.722 19.352C126.722 17.992 127.018 16.792 127.61 15.752C128.218 14.712 129.042 13.912 130.082 13.352C131.122 12.776 132.282 12.488 133.562 12.488C134.842 12.488 136.002 12.776 137.042 13.352C138.082 13.912 138.898 14.712 139.49 15.752C140.098 16.792 140.402 17.992 140.402 19.352C140.402 20.712 140.09 21.912 139.466 22.952C138.858 23.992 138.026 24.8 136.97 25.376C135.93 25.936 134.762 26.216 133.466 26.216ZM133.466 23.288C134.074 23.288 134.642 23.144 135.17 22.856C135.714 22.552 136.146 22.104 136.466 21.512C136.786 20.92 136.946 20.2 136.946 19.352C136.946 18.088 136.61 17.12 135.938 16.448C135.282 15.76 134.474 15.416 133.514 15.416C132.554 15.416 131.746 15.76 131.09 16.448C130.45 17.12 130.13 18.088 130.13 19.352C130.13 20.616 130.442 21.592 131.066 22.28C131.706 22.952 132.506 23.288 133.466 23.288ZM150.235 12.512C151.819 12.512 153.099 13.016 154.075 14.024C155.051 15.016 155.539 16.408 155.539 18.2V26H152.179V18.656C152.179 17.6 151.915 16.792 151.387 16.232C150.859 15.656 150.139 15.368 149.227 15.368C148.299 15.368 147.563 15.656 147.019 16.232C146.491 16.792 146.227 17.6 146.227 18.656V26H142.867V12.704H146.227V14.36C146.675 13.784 147.243 13.336 147.931 13.016C148.635 12.68 149.403 12.512 150.235 12.512Z" fill="#165727"/>
</svg>
