<svg width="148" height="36" viewBox="0 0 148 36" fill="none" xmlns="http://www.w3.org/2000/svg">
<path d="M11.928 22.808H5.256L4.152 26H0.624L6.648 9.224H10.56L16.584 26H13.032L11.928 22.808ZM11.016 20.12L8.592 13.112L6.168 20.12H11.016ZM31.3877 12.704V26H28.0037V24.32C27.5717 24.896 27.0037 25.352 26.2997 25.688C25.6117 26.008 24.8597 26.168 24.0437 26.168C23.0037 26.168 22.0837 25.952 21.2837 25.52C20.4837 25.072 19.8517 24.424 19.3877 23.576C18.9397 22.712 18.7157 21.688 18.7157 20.504V12.704H22.0757V20.024C22.0757 21.08 22.3397 21.896 22.8677 22.472C23.3957 23.032 24.1157 23.312 25.0277 23.312C25.9557 23.312 26.6837 23.032 27.2117 22.472C27.7397 21.896 28.0037 21.08 28.0037 20.024V12.704H31.3877ZM33.8389 19.304C33.8389 17.96 34.1029 16.768 34.6309 15.728C35.1749 14.688 35.9109 13.888 36.8389 13.328C37.7669 12.768 38.7989 12.488 39.9349 12.488C40.7989 12.488 41.6229 12.68 42.4069 13.064C43.1909 13.432 43.8149 13.928 44.2789 14.552V8.24H47.6869V26H44.2789V24.032C43.8629 24.688 43.2789 25.216 42.5269 25.616C41.7749 26.016 40.9029 26.216 39.9109 26.216C38.7909 26.216 37.7669 25.928 36.8389 25.352C35.9109 24.776 35.1749 23.968 34.6309 22.928C34.1029 21.872 33.8389 20.664 33.8389 19.304ZM44.3029 19.352C44.3029 18.536 44.1429 17.84 43.8229 17.264C43.5029 16.672 43.0709 16.224 42.5269 15.92C41.9829 15.6 41.3989 15.44 40.7749 15.44C40.1509 15.44 39.5749 15.592 39.0469 15.896C38.5189 16.2 38.0869 16.648 37.7509 17.24C37.4309 17.816 37.2709 18.504 37.2709 19.304C37.2709 20.104 37.4309 20.808 37.7509 21.416C38.0869 22.008 38.5189 22.464 39.0469 22.784C39.5909 23.104 40.1669 23.264 40.7749 23.264C41.3989 23.264 41.9829 23.112 42.5269 22.808C43.0709 22.488 43.5029 22.04 43.8229 21.464C44.1429 20.872 44.3029 20.168 44.3029 19.352ZM52.6725 11.12C52.0805 11.12 51.5845 10.936 51.1845 10.568C50.8005 10.184 50.6085 9.712 50.6085 9.152C50.6085 8.592 50.8005 8.128 51.1845 7.76C51.5845 7.376 52.0805 7.184 52.6725 7.184C53.2645 7.184 53.7525 7.376 54.1365 7.76C54.5365 8.128 54.7365 8.592 54.7365 9.152C54.7365 9.712 54.5365 10.184 54.1365 10.568C53.7525 10.936 53.2645 11.12 52.6725 11.12ZM54.3285 12.704V26H50.9685V12.704H54.3285ZM63.5522 26.216C62.2722 26.216 61.1202 25.936 60.0962 25.376C59.0722 24.8 58.2642 23.992 57.6722 22.952C57.0962 21.912 56.8082 20.712 56.8082 19.352C56.8082 17.992 57.1042 16.792 57.6962 15.752C58.3042 14.712 59.1282 13.912 60.1682 13.352C61.2082 12.776 62.3682 12.488 63.6482 12.488C64.9282 12.488 66.0882 12.776 67.1282 13.352C68.1682 13.912 68.9842 14.712 69.5762 15.752C70.1842 16.792 70.4882 17.992 70.4882 19.352C70.4882 20.712 70.1762 21.912 69.5522 22.952C68.9442 23.992 68.1122 24.8 67.0562 25.376C66.0162 25.936 64.8482 26.216 63.5522 26.216ZM63.5522 23.288C64.1602 23.288 64.7282 23.144 65.2562 22.856C65.8002 22.552 66.2322 22.104 66.5522 21.512C66.8722 20.92 67.0322 20.2 67.0322 19.352C67.0322 18.088 66.6962 17.12 66.0242 16.448C65.3682 15.76 64.5602 15.416 63.6002 15.416C62.6402 15.416 61.8322 15.76 61.1762 16.448C60.5362 17.12 60.2162 18.088 60.2162 19.352C60.2162 20.616 60.5282 21.592 61.1522 22.28C61.7922 22.952 62.5922 23.288 63.5522 23.288ZM74.6569 11.12C74.0489 11.12 73.5449 10.936 73.1449 10.568C72.7609 10.184 72.5689 9.712 72.5689 9.152C72.5689 8.592 72.7609 8.128 73.1449 7.76C73.5449 7.376 74.0489 7.184 74.6569 7.184C75.2489 7.184 75.7369 7.376 76.1209 7.76C76.5049 8.128 76.6969 8.592 76.6969 9.152C76.6969 9.712 76.5049 10.184 76.1209 10.568C75.7369 10.936 75.2489 11.12 74.6569 11.12ZM76.3129 28.184C76.3129 29.656 75.9449 30.712 75.2089 31.352C74.4889 32.008 73.4489 32.336 72.0889 32.336H70.6009V29.48H71.5609C72.0729 29.48 72.4329 29.376 72.6409 29.168C72.8489 28.976 72.9529 28.656 72.9529 28.208V12.704H76.3129V28.184ZM92.1846 12.704V26H88.8006V24.32C88.3686 24.896 87.8006 25.352 87.0966 25.688C86.4086 26.008 85.6566 26.168 84.8406 26.168C83.8006 26.168 82.8806 25.952 82.0806 25.52C81.2806 25.072 80.6486 24.424 80.1846 23.576C79.7366 22.712 79.5126 21.688 79.5126 20.504V12.704H82.8726V20.024C82.8726 21.08 83.1366 21.896 83.6646 22.472C84.1926 23.032 84.9126 23.312 85.8246 23.312C86.7526 23.312 87.4806 23.032 88.0086 22.472C88.5366 21.896 88.8006 21.08 88.8006 20.024V12.704H92.1846ZM102.868 12.512C104.452 12.512 105.732 13.016 106.708 14.024C107.684 15.016 108.172 16.408 108.172 18.2V26H104.812V18.656C104.812 17.6 104.548 16.792 104.02 16.232C103.492 15.656 102.772 15.368 101.86 15.368C100.932 15.368 100.196 15.656 99.6518 16.232C99.1238 16.792 98.8598 17.6 98.8598 18.656V26H95.4998V12.704H98.8598V14.36C99.3078 13.784 99.8758 13.336 100.564 13.016C101.268 12.68 102.036 12.512 102.868 12.512ZM116.575 12.488C117.567 12.488 118.439 12.688 119.191 13.088C119.943 13.472 120.535 13.976 120.967 14.6V12.704H124.351V26.096C124.351 27.328 124.103 28.424 123.607 29.384C123.111 30.36 122.367 31.128 121.375 31.688C120.383 32.264 119.183 32.552 117.775 32.552C115.887 32.552 114.335 32.112 113.119 31.232C111.919 30.352 111.239 29.152 111.079 27.632H114.415C114.591 28.24 114.967 28.72 115.543 29.072C116.135 29.44 116.847 29.624 117.679 29.624C118.655 29.624 119.447 29.328 120.055 28.736C120.663 28.16 120.967 27.28 120.967 26.096V24.032C120.535 24.656 119.935 25.176 119.167 25.592C118.415 26.008 117.551 26.216 116.575 26.216C115.455 26.216 114.431 25.928 113.503 25.352C112.575 24.776 111.839 23.968 111.295 22.928C110.767 21.872 110.503 20.664 110.503 19.304C110.503 17.96 110.767 16.768 111.295 15.728C111.839 14.688 112.567 13.888 113.479 13.328C114.407 12.768 115.439 12.488 116.575 12.488ZM120.967 19.352C120.967 18.536 120.807 17.84 120.487 17.264C120.167 16.672 119.735 16.224 119.191 15.92C118.647 15.6 118.063 15.44 117.439 15.44C116.815 15.44 116.239 15.592 115.711 15.896C115.183 16.2 114.751 16.648 114.415 17.24C114.095 17.816 113.935 18.504 113.935 19.304C113.935 20.104 114.095 20.808 114.415 21.416C114.751 22.008 115.183 22.464 115.711 22.784C116.255 23.104 116.831 23.264 117.439 23.264C118.063 23.264 118.647 23.112 119.191 22.808C119.735 22.488 120.167 22.04 120.487 21.464C120.807 20.872 120.967 20.168 120.967 19.352ZM130.993 8.24V26H127.633V8.24H130.993ZM146.672 19.064C146.672 19.544 146.64 19.976 146.576 20.36H136.856C136.936 21.32 137.272 22.072 137.864 22.616C138.456 23.16 139.184 23.432 140.048 23.432C141.296 23.432 142.184 22.896 142.712 21.824H146.336C145.952 23.104 145.216 24.16 144.128 24.992C143.04 25.808 141.704 26.216 140.12 26.216C138.84 26.216 137.688 25.936 136.664 25.376C135.656 24.8 134.864 23.992 134.288 22.952C133.728 21.912 133.448 20.712 133.448 19.352C133.448 17.976 133.728 16.768 134.288 15.728C134.848 14.688 135.632 13.888 136.64 13.328C137.648 12.768 138.808 12.488 140.12 12.488C141.384 12.488 142.512 12.76 143.504 13.304C144.512 13.848 145.288 14.624 145.832 15.632C146.392 16.624 146.672 17.768 146.672 19.064ZM143.192 18.104C143.176 17.24 142.864 16.552 142.256 16.04C141.648 15.512 140.904 15.248 140.024 15.248C139.192 15.248 138.488 15.504 137.912 16.016C137.352 16.512 137.008 17.208 136.88 18.104H143.192Z" fill="#165727"/>
</svg>
