<svg width="122" height="36" viewBox="0 0 122 36" fill="none" xmlns="http://www.w3.org/2000/svg">
<path d="M16.704 9.248L10.56 26H6.48L0.336 9.248H3.936L8.544 22.568L13.128 9.248H16.704ZM20.4225 11.12C19.8305 11.12 19.3345 10.936 18.9345 10.568C18.5505 10.184 18.3585 9.712 18.3585 9.152C18.3585 8.592 18.5505 8.128 18.9345 7.76C19.3345 7.376 19.8305 7.184 20.4225 7.184C21.0145 7.184 21.5025 7.376 21.8865 7.76C22.2865 8.128 22.4865 8.592 22.4865 9.152C22.4865 9.712 22.2865 10.184 21.8865 10.568C21.5025 10.936 21.0145 11.12 20.4225 11.12ZM22.0785 12.704V26H18.7185V12.704H22.0785ZM24.5342 19.304C24.5342 17.96 24.7982 16.768 25.3262 15.728C25.8702 14.688 26.6062 13.888 27.5342 13.328C28.4622 12.768 29.4942 12.488 30.6302 12.488C31.4942 12.488 32.3182 12.68 33.1022 13.064C33.8862 13.432 34.5102 13.928 34.9742 14.552V8.24H38.3822V26H34.9742V24.032C34.5582 24.688 33.9742 25.216 33.2222 25.616C32.4702 26.016 31.5982 26.216 30.6062 26.216C29.4862 26.216 28.4622 25.928 27.5342 25.352C26.6062 24.776 25.8702 23.968 25.3262 22.928C24.7982 21.872 24.5342 20.664 24.5342 19.304ZM34.9982 19.352C34.9982 18.536 34.8382 17.84 34.5182 17.264C34.1982 16.672 33.7662 16.224 33.2222 15.92C32.6782 15.6 32.0942 15.44 31.4702 15.44C30.8462 15.44 30.2702 15.592 29.7422 15.896C29.2142 16.2 28.7822 16.648 28.4462 17.24C28.1262 17.816 27.9662 18.504 27.9662 19.304C27.9662 20.104 28.1262 20.808 28.4462 21.416C28.7822 22.008 29.2142 22.464 29.7422 22.784C30.2862 23.104 30.8622 23.264 31.4702 23.264C32.0942 23.264 32.6782 23.112 33.2222 22.808C33.7662 22.488 34.1982 22.04 34.5182 21.464C34.8382 20.872 34.9982 20.168 34.9982 19.352ZM54.0238 19.064C54.0238 19.544 53.9918 19.976 53.9278 20.36H44.2078C44.2878 21.32 44.6238 22.072 45.2158 22.616C45.8078 23.16 46.5358 23.432 47.3998 23.432C48.6478 23.432 49.5358 22.896 50.0638 21.824H53.6878C53.3038 23.104 52.5678 24.16 51.4798 24.992C50.3918 25.808 49.0558 26.216 47.4718 26.216C46.1918 26.216 45.0398 25.936 44.0158 25.376C43.0078 24.8 42.2158 23.992 41.6398 22.952C41.0798 21.912 40.7998 20.712 40.7998 19.352C40.7998 17.976 41.0798 16.768 41.6398 15.728C42.1998 14.688 42.9838 13.888 43.9918 13.328C44.9998 12.768 46.1598 12.488 47.4718 12.488C48.7358 12.488 49.8638 12.76 50.8558 13.304C51.8638 13.848 52.6398 14.624 53.1838 15.632C53.7438 16.624 54.0238 17.768 54.0238 19.064ZM50.5438 18.104C50.5278 17.24 50.2158 16.552 49.6078 16.04C48.9998 15.512 48.2558 15.248 47.3758 15.248C46.5438 15.248 45.8398 15.504 45.2638 16.016C44.7038 16.512 44.3598 17.208 44.2318 18.104H50.5438ZM62.3803 26.216C61.1003 26.216 59.9483 25.936 58.9243 25.376C57.9003 24.8 57.0923 23.992 56.5003 22.952C55.9243 21.912 55.6363 20.712 55.6363 19.352C55.6363 17.992 55.9323 16.792 56.5243 15.752C57.1323 14.712 57.9563 13.912 58.9963 13.352C60.0363 12.776 61.1963 12.488 62.4763 12.488C63.7563 12.488 64.9163 12.776 65.9563 13.352C66.9963 13.912 67.8123 14.712 68.4043 15.752C69.0123 16.792 69.3163 17.992 69.3163 19.352C69.3163 20.712 69.0043 21.912 68.3803 22.952C67.7723 23.992 66.9403 24.8 65.8843 25.376C64.8443 25.936 63.6763 26.216 62.3803 26.216ZM62.3803 23.288C62.9883 23.288 63.5563 23.144 64.0843 22.856C64.6283 22.552 65.0603 22.104 65.3803 21.512C65.7003 20.92 65.8603 20.2 65.8603 19.352C65.8603 18.088 65.5243 17.12 64.8523 16.448C64.1963 15.76 63.3883 15.416 62.4283 15.416C61.4683 15.416 60.6603 15.76 60.0043 16.448C59.3643 17.12 59.0443 18.088 59.0443 19.352C59.0443 20.616 59.3563 21.592 59.9803 22.28C60.6203 22.952 61.4203 23.288 62.3803 23.288ZM79.269 12.512C80.277 12.512 81.173 12.736 81.957 13.184C82.741 13.616 83.349 14.264 83.781 15.128C84.229 15.976 84.453 17 84.453 18.2V26H81.093V18.656C81.093 17.6 80.829 16.792 80.301 16.232C79.773 15.656 79.053 15.368 78.141 15.368C77.213 15.368 76.477 15.656 75.933 16.232C75.405 16.792 75.141 17.6 75.141 18.656V26H71.781V8.24H75.141V14.36C75.573 13.784 76.149 13.336 76.869 13.016C77.589 12.68 78.389 12.512 79.269 12.512ZM89.3522 11.12C88.7602 11.12 88.2642 10.936 87.8642 10.568C87.4802 10.184 87.2882 9.712 87.2882 9.152C87.2882 8.592 87.4802 8.128 87.8642 7.76C88.2642 7.376 88.7602 7.184 89.3522 7.184C89.9442 7.184 90.4322 7.376 90.8162 7.76C91.2162 8.128 91.4162 8.592 91.4162 9.152C91.4162 9.712 91.2162 10.184 90.8162 10.568C90.4322 10.936 89.9442 11.12 89.3522 11.12ZM91.0082 12.704V26H87.6482V12.704H91.0082ZM99.8719 22.904L103.232 12.704H106.808L101.888 26H97.8079L92.9119 12.704H96.5119L99.8719 22.904ZM121.055 19.064C121.055 19.544 121.023 19.976 120.959 20.36H111.239C111.319 21.32 111.655 22.072 112.247 22.616C112.839 23.16 113.567 23.432 114.431 23.432C115.679 23.432 116.567 22.896 117.095 21.824H120.719C120.335 23.104 119.599 24.16 118.511 24.992C117.423 25.808 116.087 26.216 114.503 26.216C113.223 26.216 112.071 25.936 111.047 25.376C110.039 24.8 109.247 23.992 108.671 22.952C108.111 21.912 107.831 20.712 107.831 19.352C107.831 17.976 108.111 16.768 108.671 15.728C109.231 14.688 110.015 13.888 111.023 13.328C112.031 12.768 113.191 12.488 114.503 12.488C115.767 12.488 116.895 12.76 117.887 13.304C118.895 13.848 119.671 14.624 120.215 15.632C120.775 16.624 121.055 17.768 121.055 19.064ZM117.575 18.104C117.559 17.24 117.247 16.552 116.639 16.04C116.031 15.512 115.287 15.248 114.407 15.248C113.575 15.248 112.871 15.504 112.295 16.016C111.735 16.512 111.391 17.208 111.263 18.104H117.575Z" fill="#165727"/>
</svg>
