<svg width="155" height="36" viewBox="0 0 155 36" fill="none" xmlns="http://www.w3.org/2000/svg">
<path d="M13.056 9.248V11.96H8.592V26H5.232V11.96H0.768V9.248H13.056ZM22.9956 12.512C24.0036 12.512 24.8996 12.736 25.6836 13.184C26.4676 13.616 27.0756 14.264 27.5076 15.128C27.9556 15.976 28.1796 17 28.1796 18.2V26H24.8196V18.656C24.8196 17.6 24.5556 16.792 24.0276 16.232C23.4996 15.656 22.7796 15.368 21.8676 15.368C20.9396 15.368 20.2036 15.656 19.6596 16.232C19.1316 16.792 18.8676 17.6 18.8676 18.656V26H15.5076V8.24H18.8676V14.36C19.2996 13.784 19.8756 13.336 20.5956 13.016C21.3156 12.68 22.1156 12.512 22.9956 12.512ZM43.7348 19.064C43.7348 19.544 43.7028 19.976 43.6388 20.36H33.9188C33.9988 21.32 34.3348 22.072 34.9268 22.616C35.5188 23.16 36.2468 23.432 37.1108 23.432C38.3588 23.432 39.2468 22.896 39.7748 21.824H43.3988C43.0148 23.104 42.2788 24.16 41.1908 24.992C40.1028 25.808 38.7668 26.216 37.1828 26.216C35.9028 26.216 34.7508 25.936 33.7268 25.376C32.7188 24.8 31.9268 23.992 31.3508 22.952C30.7908 21.912 30.5107 20.712 30.5107 19.352C30.5107 17.976 30.7908 16.768 31.3508 15.728C31.9108 14.688 32.6948 13.888 33.7028 13.328C34.7108 12.768 35.8708 12.488 37.1828 12.488C38.4468 12.488 39.5748 12.76 40.5668 13.304C41.5748 13.848 42.3508 14.624 42.8948 15.632C43.4548 16.624 43.7348 17.768 43.7348 19.064ZM40.2548 18.104C40.2388 17.24 39.9268 16.552 39.3188 16.04C38.7108 15.512 37.9668 15.248 37.0868 15.248C36.2548 15.248 35.5508 15.504 34.9748 16.016C34.4148 16.512 34.0708 17.208 33.9428 18.104H40.2548ZM62.6993 12.512C64.3313 12.512 65.6433 13.016 66.6353 14.024C67.6433 15.016 68.1473 16.408 68.1473 18.2V26H64.7873V18.656C64.7873 17.616 64.5233 16.824 63.9953 16.28C63.4673 15.72 62.7473 15.44 61.8353 15.44C60.9233 15.44 60.1953 15.72 59.6513 16.28C59.1233 16.824 58.8593 17.616 58.8593 18.656V26H55.4993V18.656C55.4993 17.616 55.2353 16.824 54.7073 16.28C54.1793 15.72 53.4593 15.44 52.5473 15.44C51.6193 15.44 50.8833 15.72 50.3393 16.28C49.8113 16.824 49.5473 17.616 49.5473 18.656V26H46.1873V12.704H49.5473V14.312C49.9793 13.752 50.5313 13.312 51.2033 12.992C51.8913 12.672 52.6433 12.512 53.4593 12.512C54.4993 12.512 55.4273 12.736 56.2433 13.184C57.0593 13.616 57.6913 14.24 58.1393 15.056C58.5713 14.288 59.1953 13.672 60.0113 13.208C60.8433 12.744 61.7393 12.512 62.6993 12.512ZM83.6957 19.064C83.6957 19.544 83.6637 19.976 83.5997 20.36H73.8797C73.9597 21.32 74.2957 22.072 74.8877 22.616C75.4797 23.16 76.2077 23.432 77.0717 23.432C78.3197 23.432 79.2077 22.896 79.7357 21.824H83.3597C82.9757 23.104 82.2397 24.16 81.1517 24.992C80.0637 25.808 78.7277 26.216 77.1437 26.216C75.8637 26.216 74.7117 25.936 73.6877 25.376C72.6797 24.8 71.8877 23.992 71.3117 22.952C70.7517 21.912 70.4717 20.712 70.4717 19.352C70.4717 17.976 70.7517 16.768 71.3117 15.728C71.8717 14.688 72.6557 13.888 73.6637 13.328C74.6717 12.768 75.8317 12.488 77.1437 12.488C78.4077 12.488 79.5357 12.76 80.5277 13.304C81.5357 13.848 82.3117 14.624 82.8557 15.632C83.4157 16.624 83.6957 17.768 83.6957 19.064ZM80.2157 18.104C80.1997 17.24 79.8877 16.552 79.2797 16.04C78.6717 15.512 77.9277 15.248 77.0477 15.248C76.2157 15.248 75.5117 15.504 74.9357 16.016C74.3757 16.512 74.0317 17.208 73.9037 18.104H80.2157ZM92.2442 15.464H89.9162V26H86.5082V15.464H84.9962V12.704H86.5082V12.032C86.5082 10.4 86.9722 9.2 87.9002 8.432C88.8282 7.664 90.2282 7.304 92.1002 7.352V10.184C91.2842 10.168 90.7162 10.304 90.3962 10.592C90.0762 10.88 89.9162 11.4 89.9162 12.152V12.704H92.2442V15.464ZM100.326 26.216C99.0456 26.216 97.8936 25.936 96.8696 25.376C95.8456 24.8 95.0376 23.992 94.4456 22.952C93.8696 21.912 93.5816 20.712 93.5816 19.352C93.5816 17.992 93.8776 16.792 94.4696 15.752C95.0776 14.712 95.9016 13.912 96.9416 13.352C97.9816 12.776 99.1416 12.488 100.422 12.488C101.702 12.488 102.862 12.776 103.902 13.352C104.942 13.912 105.758 14.712 106.35 15.752C106.958 16.792 107.262 17.992 107.262 19.352C107.262 20.712 106.95 21.912 106.326 22.952C105.718 23.992 104.886 24.8 103.83 25.376C102.79 25.936 101.622 26.216 100.326 26.216ZM100.326 23.288C100.934 23.288 101.502 23.144 102.03 22.856C102.574 22.552 103.006 22.104 103.326 21.512C103.646 20.92 103.806 20.2 103.806 19.352C103.806 18.088 103.47 17.12 102.798 16.448C102.142 15.76 101.334 15.416 100.374 15.416C99.4136 15.416 98.6056 15.76 97.9496 16.448C97.3096 17.12 96.9896 18.088 96.9896 19.352C96.9896 20.616 97.3016 21.592 97.9256 22.28C98.5656 22.952 99.3656 23.288 100.326 23.288ZM113.086 14.768C113.518 14.064 114.078 13.512 114.766 13.112C115.47 12.712 116.27 12.512 117.166 12.512V16.04H116.278C115.222 16.04 114.422 16.288 113.878 16.784C113.35 17.28 113.086 18.144 113.086 19.376V26H109.726V12.704H113.086V14.768ZM131.789 19.064C131.789 19.544 131.757 19.976 131.693 20.36H121.973C122.053 21.32 122.389 22.072 122.981 22.616C123.573 23.16 124.301 23.432 125.165 23.432C126.413 23.432 127.301 22.896 127.829 21.824H131.453C131.069 23.104 130.333 24.16 129.245 24.992C128.157 25.808 126.821 26.216 125.237 26.216C123.957 26.216 122.805 25.936 121.781 25.376C120.773 24.8 119.981 23.992 119.405 22.952C118.845 21.912 118.565 20.712 118.565 19.352C118.565 17.976 118.845 16.768 119.405 15.728C119.965 14.688 120.749 13.888 121.757 13.328C122.765 12.768 123.925 12.488 125.237 12.488C126.501 12.488 127.629 12.76 128.621 13.304C129.629 13.848 130.405 14.624 130.949 15.632C131.509 16.624 131.789 17.768 131.789 19.064ZM128.309 18.104C128.293 17.24 127.981 16.552 127.373 16.04C126.765 15.512 126.021 15.248 125.141 15.248C124.309 15.248 123.605 15.504 123.029 16.016C122.469 16.512 122.125 17.208 121.997 18.104H128.309ZM139.33 26.216C138.242 26.216 137.266 26.024 136.402 25.64C135.538 25.24 134.85 24.704 134.338 24.032C133.842 23.36 133.57 22.616 133.522 21.8H136.906C136.97 22.312 137.218 22.736 137.65 23.072C138.098 23.408 138.65 23.576 139.306 23.576C139.946 23.576 140.442 23.448 140.794 23.192C141.162 22.936 141.346 22.608 141.346 22.208C141.346 21.776 141.122 21.456 140.674 21.248C140.242 21.024 139.546 20.784 138.586 20.528C137.594 20.288 136.778 20.04 136.138 19.784C135.514 19.528 134.97 19.136 134.506 18.608C134.058 18.08 133.834 17.368 133.834 16.472C133.834 15.736 134.042 15.064 134.458 14.456C134.89 13.848 135.498 13.368 136.282 13.016C137.082 12.664 138.018 12.488 139.09 12.488C140.674 12.488 141.938 12.888 142.882 13.688C143.826 14.472 144.346 15.536 144.442 16.88H141.226C141.178 16.352 140.954 15.936 140.554 15.632C140.17 15.312 139.65 15.152 138.994 15.152C138.386 15.152 137.914 15.264 137.578 15.488C137.258 15.712 137.098 16.024 137.098 16.424C137.098 16.872 137.322 17.216 137.77 17.456C138.218 17.68 138.914 17.912 139.858 18.152C140.818 18.392 141.61 18.64 142.234 18.896C142.858 19.152 143.394 19.552 143.842 20.096C144.306 20.624 144.546 21.328 144.562 22.208C144.562 22.976 144.346 23.664 143.914 24.272C143.498 24.88 142.89 25.36 142.09 25.712C141.306 26.048 140.386 26.216 139.33 26.216ZM151.232 15.464V21.896C151.232 22.344 151.336 22.672 151.544 22.88C151.768 23.072 152.136 23.168 152.648 23.168H154.208V26H152.096C149.264 26 147.848 24.624 147.848 21.872V15.464H146.264V12.704H147.848V9.416H151.232V12.704H154.208V15.464H151.232Z" fill="#165727"/>
</svg>
