<svg width="124" height="20" viewBox="0 0 124 20" fill="none" xmlns="http://www.w3.org/2000/svg">
<path fill-rule="evenodd" clip-rule="evenodd" d="M9.99992 16.4329L5.11528 19.0009C4.53065 19.3083 3.80756 19.0835 3.5002 18.4989C3.37781 18.2661 3.33558 17.9994 3.38004 17.7402L4.31292 12.3011L0.361159 8.44906C-0.111814 7.98803 -0.121491 7.23087 0.339542 6.7579C0.523129 6.56956 0.763681 6.44699 1.02396 6.40917L6.48516 5.61561L8.92749 0.666921C9.2198 0.0746306 9.93691 -0.168549 10.5292 0.123764C10.7651 0.240164 10.956 0.431068 11.0724 0.666921L13.5147 5.61561L18.9759 6.40917C19.6295 6.50415 20.0824 7.11101 19.9874 7.76465C19.9496 8.02493 19.827 8.26548 19.6387 8.44906L15.6869 12.3011L16.6198 17.7402C16.7315 18.3912 16.2942 19.0094 15.6433 19.1211C15.384 19.1656 15.1174 19.1233 14.8846 19.0009L9.99992 16.4329Z" fill="black"/>
<path fill-rule="evenodd" clip-rule="evenodd" d="M35.9999 16.4329L31.1153 19.0009C30.5306 19.3083 29.8076 19.0835 29.5002 18.4989C29.3778 18.2661 29.3356 17.9994 29.38 17.7402L30.3129 12.3011L26.3612 8.44906C25.8882 7.98803 25.8785 7.23087 26.3395 6.7579C26.5231 6.56956 26.7637 6.44699 27.024 6.40917L32.4852 5.61561L34.9275 0.666921C35.2198 0.0746306 35.9369 -0.168549 36.5292 0.123764C36.7651 0.240164 36.956 0.431068 37.0724 0.666921L39.5147 5.61561L44.9759 6.40917C45.6295 6.50415 46.0824 7.11101 45.9874 7.76465C45.9496 8.02493 45.827 8.26548 45.6387 8.44906L41.6869 12.3011L42.6198 17.7402C42.7315 18.3912 42.2942 19.0094 41.6433 19.1211C41.384 19.1656 41.1174 19.1233 40.8846 19.0009L35.9999 16.4329Z" fill="black"/>
<path fill-rule="evenodd" clip-rule="evenodd" d="M61.9999 16.4329L57.1153 19.0009C56.5306 19.3083 55.8076 19.0835 55.5002 18.4989C55.3778 18.2661 55.3356 17.9994 55.38 17.7402L56.3129 12.3011L52.3612 8.44906C51.8882 7.98803 51.8785 7.23087 52.3395 6.7579C52.5231 6.56956 52.7637 6.44699 53.024 6.40917L58.4852 5.61561L60.9275 0.666921C61.2198 0.0746306 61.9369 -0.168549 62.5292 0.123764C62.7651 0.240164 62.956 0.431068 63.0724 0.666921L65.5147 5.61561L70.9759 6.40917C71.6295 6.50415 72.0824 7.11101 71.9874 7.76465C71.9496 8.02493 71.827 8.26548 71.6387 8.44906L67.6869 12.3011L68.6198 17.7402C68.7315 18.3912 68.2942 19.0094 67.6433 19.1211C67.384 19.1656 67.1174 19.1233 66.8846 19.0009L61.9999 16.4329Z" fill="black"/>
<path fill-rule="evenodd" clip-rule="evenodd" d="M87.9999 16.4329L83.1153 19.0009C82.5306 19.3083 81.8076 19.0835 81.5002 18.4989C81.3778 18.2661 81.3356 17.9994 81.38 17.7402L82.3129 12.3011L78.3612 8.44906C77.8882 7.98803 77.8785 7.23087 78.3395 6.7579C78.5231 6.56956 78.7637 6.44699 79.024 6.40917L84.4852 5.61561L86.9275 0.666921C87.2198 0.0746306 87.9369 -0.168549 88.5292 0.123764C88.7651 0.240164 88.956 0.431068 89.0724 0.666921L91.5147 5.61561L96.9759 6.40917C97.6295 6.50415 98.0824 7.11101 97.9874 7.76465C97.9496 8.02493 97.827 8.26548 97.6387 8.44906L93.6869 12.3011L94.6198 17.7402C94.7315 18.3912 94.2942 19.0094 93.6433 19.1211C93.384 19.1656 93.1174 19.1233 92.8846 19.0009L87.9999 16.4329Z" fill="black"/>
<path fill-rule="evenodd" clip-rule="evenodd" d="M114 16.4329L109.115 19.0009C108.531 19.3083 107.808 19.0835 107.5 18.4989C107.378 18.2661 107.336 17.9994 107.38 17.7402L108.313 12.3011L104.361 8.44906C103.888 7.98803 103.879 7.23087 104.34 6.7579C104.523 6.56956 104.764 6.44699 105.024 6.40917L110.485 5.61561L112.927 0.666921C113.22 0.0746306 113.937 -0.168549 114.529 0.123764C114.765 0.240164 114.956 0.431068 115.072 0.666921L117.515 5.61561L122.976 6.40917C123.63 6.50415 124.082 7.11101 123.987 7.76465C123.95 8.02493 123.827 8.26548 123.639 8.44906L119.687 12.3011L120.62 17.7402C120.731 18.3912 120.294 19.0094 119.643 19.1211C119.384 19.1656 119.117 19.1233 118.885 19.0009L114 16.4329Z" fill="black"/>
</svg>
