<svg width="125" height="49" viewBox="0 0 125 49" fill="none" xmlns="http://www.w3.org/2000/svg">
<path d="M46.1233 26.3044C45.7393 25.6004 45.2113 25.0644 44.5393 24.6964C43.8673 24.3284 43.0833 24.1444 42.1873 24.1444C41.1953 24.1444 40.3153 24.3684 39.5473 24.8164C38.7793 25.2644 38.1793 25.9044 37.7473 26.7364C37.3153 27.5684 37.0993 28.5284 37.0993 29.6164C37.0993 30.7364 37.3153 31.7124 37.7473 32.5444C38.1953 33.3764 38.8113 34.0164 39.5953 34.4644C40.3793 34.9124 41.2913 35.1364 42.3313 35.1364C43.6113 35.1364 44.6593 34.8004 45.4753 34.1284C46.2913 33.4404 46.8273 32.4884 47.0833 31.2724H41.3233V28.7044H50.3953V31.6324C50.1713 32.8004 49.6913 33.8804 48.9553 34.8724C48.2193 35.8644 47.2673 36.6644 46.0993 37.2724C44.9473 37.8644 43.6513 38.1604 42.2113 38.1604C40.5953 38.1604 39.1313 37.8004 37.8193 37.0804C36.5233 36.3444 35.4993 35.3284 34.7473 34.0324C34.0113 32.7364 33.6433 31.2644 33.6433 29.6164C33.6433 27.9684 34.0113 26.4964 34.7473 25.2004C35.4993 23.8884 36.5233 22.8724 37.8193 22.1524C39.1313 21.4164 40.5873 21.0484 42.1873 21.0484C44.0753 21.0484 45.7153 21.5124 47.1073 22.4404C48.4993 23.3524 49.4593 24.6404 49.9873 26.3044H46.1233ZM52.0172 31.3204C52.0172 29.9764 52.2812 28.7844 52.8092 27.7444C53.3532 26.7044 54.0812 25.9044 54.9932 25.3444C55.9212 24.7844 56.9532 24.5044 58.0892 24.5044C59.0812 24.5044 59.9452 24.7044 60.6812 25.1044C61.4332 25.5044 62.0332 26.0084 62.4812 26.6164V24.7204H65.8652V38.0164H62.4812V36.0724C62.0492 36.6964 61.4492 37.2164 60.6812 37.6324C59.9292 38.0324 59.0572 38.2324 58.0652 38.2324C56.9452 38.2324 55.9212 37.9444 54.9932 37.3684C54.0812 36.7924 53.3532 35.9844 52.8092 34.9444C52.2812 33.8884 52.0172 32.6804 52.0172 31.3204ZM62.4812 31.3684C62.4812 30.5524 62.3212 29.8564 62.0012 29.2804C61.6812 28.6884 61.2492 28.2404 60.7052 27.9364C60.1612 27.6164 59.5772 27.4564 58.9532 27.4564C58.3292 27.4564 57.7532 27.6084 57.2252 27.9124C56.6972 28.2164 56.2652 28.6644 55.9292 29.2564C55.6092 29.8324 55.4492 30.5204 55.4492 31.3204C55.4492 32.1204 55.6092 32.8244 55.9292 33.4324C56.2652 34.0244 56.6972 34.4804 57.2252 34.8004C57.7692 35.1204 58.3452 35.2804 58.9532 35.2804C59.5772 35.2804 60.1612 35.1284 60.7052 34.8244C61.2492 34.5044 61.6812 34.0564 62.0012 33.4804C62.3212 32.8884 62.4812 32.1844 62.4812 31.3684ZM72.5068 26.7844C72.9388 26.0804 73.4988 25.5284 74.1868 25.1284C74.8908 24.7284 75.6908 24.5284 76.5868 24.5284V28.0564H75.6988C74.6428 28.0564 73.8428 28.3044 73.2988 28.8004C72.7708 29.2964 72.5068 30.1604 72.5068 31.3924V38.0164H69.1468V24.7204H72.5068V26.7844ZM77.9859 31.3204C77.9859 29.9764 78.2499 28.7844 78.7779 27.7444C79.3219 26.7044 80.0579 25.9044 80.9859 25.3444C81.9139 24.7844 82.9459 24.5044 84.0819 24.5044C84.9459 24.5044 85.7699 24.6964 86.5539 25.0804C87.3379 25.4484 87.9619 25.9444 88.4259 26.5684V20.2564H91.8339V38.0164H88.4259V36.0484C88.0099 36.7044 87.4259 37.2324 86.6739 37.6324C85.9219 38.0324 85.0499 38.2324 84.0579 38.2324C82.9379 38.2324 81.9139 37.9444 80.9859 37.3684C80.0579 36.7924 79.3219 35.9844 78.7779 34.9444C78.2499 33.8884 77.9859 32.6804 77.9859 31.3204ZM88.4499 31.3684C88.4499 30.5524 88.2899 29.8564 87.9699 29.2804C87.6499 28.6884 87.2179 28.2404 86.6739 27.9364C86.1299 27.6164 85.5459 27.4564 84.9219 27.4564C84.2979 27.4564 83.7219 27.6084 83.1939 27.9124C82.6659 28.2164 82.2339 28.6644 81.8979 29.2564C81.5779 29.8324 81.4179 30.5204 81.4179 31.3204C81.4179 32.1204 81.5779 32.8244 81.8979 33.4324C82.2339 34.0244 82.6659 34.4804 83.1939 34.8004C83.7379 35.1204 84.3139 35.2804 84.9219 35.2804C85.5459 35.2804 86.1299 35.1284 86.6739 34.8244C87.2179 34.5044 87.6499 34.0564 87.9699 33.4804C88.2899 32.8884 88.4499 32.1844 88.4499 31.3684ZM107.476 31.0804C107.476 31.5604 107.444 31.9924 107.38 32.3764H97.6595C97.7395 33.3364 98.0755 34.0884 98.6675 34.6324C99.2595 35.1764 99.9875 35.4484 100.852 35.4484C102.1 35.4484 102.988 34.9124 103.516 33.8404H107.14C106.756 35.1204 106.02 36.1764 104.932 37.0084C103.844 37.8244 102.508 38.2324 100.924 38.2324C99.6435 38.2324 98.4915 37.9524 97.4675 37.3924C96.4595 36.8164 95.6675 36.0084 95.0915 34.9684C94.5315 33.9284 94.2515 32.7284 94.2515 31.3684C94.2515 29.9924 94.5315 28.7844 95.0915 27.7444C95.6515 26.7044 96.4355 25.9044 97.4435 25.3444C98.4515 24.7844 99.6115 24.5044 100.924 24.5044C102.188 24.5044 103.316 24.7764 104.308 25.3204C105.316 25.8644 106.092 26.6404 106.636 27.6484C107.196 28.6404 107.476 29.7844 107.476 31.0804ZM103.996 30.1204C103.98 29.2564 103.668 28.5684 103.06 28.0564C102.452 27.5284 101.708 27.2644 100.828 27.2644C99.9955 27.2644 99.2915 27.5204 98.7155 28.0324C98.1555 28.5284 97.8115 29.2244 97.6835 30.1204H103.996ZM117.296 24.5284C118.88 24.5284 120.16 25.0324 121.136 26.0404C122.112 27.0324 122.6 28.4244 122.6 30.2164V38.0164H119.24V30.6724C119.24 29.6164 118.976 28.8084 118.448 28.2484C117.92 27.6724 117.2 27.3844 116.288 27.3844C115.36 27.3844 114.624 27.6724 114.08 28.2484C113.552 28.8084 113.288 29.6164 113.288 30.6724V38.0164H109.928V24.7204H113.288V26.3764C113.736 25.8004 114.304 25.3524 114.992 25.0324C115.696 24.6964 116.464 24.5284 117.296 24.5284Z" fill="#165727"/>
<path opacity="0.3" fill-rule="evenodd" clip-rule="evenodd" d="M4.43822 2.57134C4.43822 2.57134 22.2959 12.5382 17.2949 24.8398C4.51206 22.8056 4.43822 2.57134 4.43822 2.57134Z" fill="#438E56"/>
<path opacity="0.3" fill-rule="evenodd" clip-rule="evenodd" d="M27.7658 2.57134C27.7658 2.57134 9.90811 12.5382 14.9091 24.8398C27.6919 22.8056 27.7658 2.57134 27.7658 2.57134Z" fill="#438E56"/>
<path opacity="0.3" fill-rule="evenodd" clip-rule="evenodd" d="M16.4103 1.42627C16.4103 1.42627 6.21837 18.9585 16.4103 27.0984C26.1856 18.9585 16.4103 1.42627 16.4103 1.42627Z" fill="#438E56"/>
<path d="M5.70496 22.3934C5.70496 21.8411 6.15267 21.3934 6.70496 21.3934H26.0984C26.6507 21.3934 27.0984 21.8411 27.0984 22.3934V36.5082C27.0984 37.6128 26.203 38.5082 25.0984 38.5082H7.70496C6.60039 38.5082 5.70496 37.6128 5.70496 36.5082V22.3934Z" fill="#438E56"/>
</svg>
