<svg width="125" height="49" viewBox="0 0 125 49" fill="none" xmlns="http://www.w3.org/2000/svg">
<path d="M46.1232 26.3044C45.7392 25.6004 45.2112 25.0644 44.5392 24.6964C43.8672 24.3284 43.0832 24.1444 42.1872 24.1444C41.1952 24.1444 40.3152 24.3684 39.5472 24.8164C38.7792 25.2644 38.1792 25.9044 37.7472 26.7364C37.3152 27.5684 37.0992 28.5284 37.0992 29.6164C37.0992 30.7364 37.3152 31.7124 37.7472 32.5444C38.1952 33.3764 38.8112 34.0164 39.5952 34.4644C40.3792 34.9124 41.2912 35.1364 42.3312 35.1364C43.6112 35.1364 44.6592 34.8004 45.4752 34.1284C46.2912 33.4404 46.8272 32.4884 47.0832 31.2724H41.3232V28.7044H50.3952V31.6324C50.1712 32.8004 49.6912 33.8804 48.9552 34.8724C48.2192 35.8644 47.2672 36.6644 46.0992 37.2724C44.9472 37.8644 43.6512 38.1604 42.2112 38.1604C40.5952 38.1604 39.1312 37.8004 37.8192 37.0804C36.5232 36.3444 35.4992 35.3284 34.7472 34.0324C34.0112 32.7364 33.6432 31.2644 33.6432 29.6164C33.6432 27.9684 34.0112 26.4964 34.7472 25.2004C35.4992 23.8884 36.5232 22.8724 37.8192 22.1524C39.1312 21.4164 40.5872 21.0484 42.1872 21.0484C44.0752 21.0484 45.7152 21.5124 47.1072 22.4404C48.4992 23.3524 49.4592 24.6404 49.9872 26.3044H46.1232ZM52.0171 31.3204C52.0171 29.9764 52.2811 28.7844 52.8091 27.7444C53.3531 26.7044 54.0811 25.9044 54.9931 25.3444C55.9211 24.7844 56.9531 24.5044 58.0891 24.5044C59.0811 24.5044 59.9451 24.7044 60.6811 25.1044C61.4331 25.5044 62.0331 26.0084 62.4811 26.6164V24.7204H65.8651V38.0164H62.4811V36.0724C62.0491 36.6964 61.4491 37.2164 60.6811 37.6324C59.9291 38.0324 59.0571 38.2324 58.0651 38.2324C56.9451 38.2324 55.9211 37.9444 54.9931 37.3684C54.0811 36.7924 53.3531 35.9844 52.8091 34.9444C52.2811 33.8884 52.0171 32.6804 52.0171 31.3204ZM62.4811 31.3684C62.4811 30.5524 62.3211 29.8564 62.0011 29.2804C61.6811 28.6884 61.2491 28.2404 60.7051 27.9364C60.1611 27.6164 59.5771 27.4564 58.9531 27.4564C58.3291 27.4564 57.7531 27.6084 57.2251 27.9124C56.6971 28.2164 56.2651 28.6644 55.9291 29.2564C55.6091 29.8324 55.4491 30.5204 55.4491 31.3204C55.4491 32.1204 55.6091 32.8244 55.9291 33.4324C56.2651 34.0244 56.6971 34.4804 57.2251 34.8004C57.7691 35.1204 58.3451 35.2804 58.9531 35.2804C59.5771 35.2804 60.1611 35.1284 60.7051 34.8244C61.2491 34.5044 61.6811 34.0564 62.0011 33.4804C62.3211 32.8884 62.4811 32.1844 62.4811 31.3684ZM72.5067 26.7844C72.9387 26.0804 73.4987 25.5284 74.1867 25.1284C74.8907 24.7284 75.6907 24.5284 76.5867 24.5284V28.0564H75.6987C74.6427 28.0564 73.8427 28.3044 73.2987 28.8004C72.7707 29.2964 72.5067 30.1604 72.5067 31.3924V38.0164H69.1467V24.7204H72.5067V26.7844ZM77.9858 31.3204C77.9858 29.9764 78.2498 28.7844 78.7778 27.7444C79.3218 26.7044 80.0578 25.9044 80.9858 25.3444C81.9138 24.7844 82.9458 24.5044 84.0818 24.5044C84.9458 24.5044 85.7698 24.6964 86.5538 25.0804C87.3378 25.4484 87.9618 25.9444 88.4258 26.5684V20.2564H91.8338V38.0164H88.4258V36.0484C88.0098 36.7044 87.4258 37.2324 86.6738 37.6324C85.9218 38.0324 85.0498 38.2324 84.0578 38.2324C82.9378 38.2324 81.9138 37.9444 80.9858 37.3684C80.0578 36.7924 79.3218 35.9844 78.7778 34.9444C78.2498 33.8884 77.9858 32.6804 77.9858 31.3204ZM88.4498 31.3684C88.4498 30.5524 88.2898 29.8564 87.9698 29.2804C87.6498 28.6884 87.2178 28.2404 86.6738 27.9364C86.1298 27.6164 85.5458 27.4564 84.9218 27.4564C84.2978 27.4564 83.7218 27.6084 83.1938 27.9124C82.6658 28.2164 82.2338 28.6644 81.8978 29.2564C81.5778 29.8324 81.4178 30.5204 81.4178 31.3204C81.4178 32.1204 81.5778 32.8244 81.8978 33.4324C82.2338 34.0244 82.6658 34.4804 83.1938 34.8004C83.7378 35.1204 84.3138 35.2804 84.9218 35.2804C85.5458 35.2804 86.1298 35.1284 86.6738 34.8244C87.2178 34.5044 87.6498 34.0564 87.9698 33.4804C88.2898 32.8884 88.4498 32.1844 88.4498 31.3684ZM107.475 31.0804C107.475 31.5604 107.443 31.9924 107.379 32.3764H97.6595C97.7395 33.3364 98.0755 34.0884 98.6675 34.6324C99.2595 35.1764 99.9875 35.4484 100.851 35.4484C102.099 35.4484 102.987 34.9124 103.515 33.8404H107.139C106.755 35.1204 106.019 36.1764 104.931 37.0084C103.843 37.8244 102.507 38.2324 100.923 38.2324C99.6435 38.2324 98.4915 37.9524 97.4675 37.3924C96.4595 36.8164 95.6675 36.0084 95.0915 34.9684C94.5315 33.9284 94.2515 32.7284 94.2515 31.3684C94.2515 29.9924 94.5315 28.7844 95.0915 27.7444C95.6515 26.7044 96.4355 25.9044 97.4435 25.3444C98.4515 24.7844 99.6115 24.5044 100.923 24.5044C102.187 24.5044 103.315 24.7764 104.307 25.3204C105.315 25.8644 106.091 26.6404 106.635 27.6484C107.195 28.6404 107.475 29.7844 107.475 31.0804ZM103.995 30.1204C103.979 29.2564 103.667 28.5684 103.059 28.0564C102.451 27.5284 101.707 27.2644 100.827 27.2644C99.9955 27.2644 99.2915 27.5204 98.7155 28.0324C98.1555 28.5284 97.8115 29.2244 97.6835 30.1204H103.995ZM117.296 24.5284C118.88 24.5284 120.16 25.0324 121.136 26.0404C122.112 27.0324 122.6 28.4244 122.6 30.2164V38.0164H119.24V30.6724C119.24 29.6164 118.976 28.8084 118.448 28.2484C117.92 27.6724 117.2 27.3844 116.288 27.3844C115.36 27.3844 114.624 27.6724 114.08 28.2484C113.552 28.8084 113.288 29.6164 113.288 30.6724V38.0164H109.928V24.7204H113.288V26.3764C113.736 25.8004 114.304 25.3524 114.992 25.0324C115.696 24.6964 116.464 24.5284 117.296 24.5284Z" fill="#165727"/>
<path d="M42.684 5.66V14H41.316V8.288L38.772 14H37.824L35.268 8.288V14H33.9V5.66H35.376L38.304 12.2L41.22 5.66H42.684ZM44.026 10.664C44.026 10 44.162 9.412 44.434 8.9C44.714 8.388 45.09 7.992 45.562 7.712C46.042 7.424 46.57 7.28 47.146 7.28C47.666 7.28 48.118 7.384 48.502 7.592C48.894 7.792 49.206 8.044 49.438 8.348V7.388H50.818V14H49.438V13.016C49.206 13.328 48.89 13.588 48.49 13.796C48.09 14.004 47.634 14.108 47.122 14.108C46.554 14.108 46.034 13.964 45.562 13.676C45.09 13.38 44.714 12.972 44.434 12.452C44.162 11.924 44.026 11.328 44.026 10.664ZM49.438 10.688C49.438 10.232 49.342 9.836 49.15 9.5C48.966 9.164 48.722 8.908 48.418 8.732C48.114 8.556 47.786 8.468 47.434 8.468C47.082 8.468 46.754 8.556 46.45 8.732C46.146 8.9 45.898 9.152 45.706 9.488C45.522 9.816 45.43 10.208 45.43 10.664C45.43 11.12 45.522 11.52 45.706 11.864C45.898 12.208 46.146 12.472 46.45 12.656C46.762 12.832 47.09 12.92 47.434 12.92C47.786 12.92 48.114 12.832 48.418 12.656C48.722 12.48 48.966 12.224 49.15 11.888C49.342 11.544 49.438 11.144 49.438 10.688ZM52.1588 10.664C52.1588 10 52.2948 9.412 52.5668 8.9C52.8468 8.388 53.2228 7.992 53.6948 7.712C54.1748 7.424 54.7068 7.28 55.2908 7.28C55.7228 7.28 56.1468 7.376 56.5628 7.568C56.9868 7.752 57.3228 8 57.5708 8.312V5.12H58.9508V14H57.5708V13.004C57.3468 13.324 57.0348 13.588 56.6348 13.796C56.2428 14.004 55.7908 14.108 55.2788 14.108C54.7028 14.108 54.1748 13.964 53.6948 13.676C53.2228 13.38 52.8468 12.972 52.5668 12.452C52.2948 11.924 52.1588 11.328 52.1588 10.664ZM57.5708 10.688C57.5708 10.232 57.4748 9.836 57.2828 9.5C57.0988 9.164 56.8548 8.908 56.5508 8.732C56.2468 8.556 55.9188 8.468 55.5668 8.468C55.2148 8.468 54.8868 8.556 54.5828 8.732C54.2788 8.9 54.0308 9.152 53.8388 9.488C53.6548 9.816 53.5628 10.208 53.5628 10.664C53.5628 11.12 53.6548 11.52 53.8388 11.864C54.0308 12.208 54.2788 12.472 54.5828 12.656C54.8948 12.832 55.2228 12.92 55.5668 12.92C55.9188 12.92 56.2468 12.832 56.5508 12.656C56.8548 12.48 57.0988 12.224 57.2828 11.888C57.4748 11.544 57.5708 11.144 57.5708 10.688ZM66.8077 10.532C66.8077 10.78 66.7917 11.004 66.7597 11.204H61.7077C61.7477 11.732 61.9437 12.156 62.2957 12.476C62.6477 12.796 63.0797 12.956 63.5917 12.956C64.3277 12.956 64.8477 12.648 65.1517 12.032H66.6277C66.4277 12.64 66.0637 13.14 65.5357 13.532C65.0157 13.916 64.3677 14.108 63.5917 14.108C62.9597 14.108 62.3917 13.968 61.8877 13.688C61.3917 13.4 60.9997 13 60.7117 12.488C60.4317 11.968 60.2917 11.368 60.2917 10.688C60.2917 10.008 60.4277 9.412 60.6997 8.9C60.9797 8.38 61.3677 7.98 61.8637 7.7C62.3677 7.42 62.9437 7.28 63.5917 7.28C64.2157 7.28 64.7717 7.416 65.2597 7.688C65.7477 7.96 66.1277 8.344 66.3997 8.84C66.6717 9.328 66.8077 9.892 66.8077 10.532ZM65.3797 10.1C65.3717 9.596 65.1917 9.192 64.8397 8.888C64.4877 8.584 64.0517 8.432 63.5317 8.432C63.0597 8.432 62.6557 8.584 62.3197 8.888C61.9837 9.184 61.7837 9.588 61.7197 10.1H65.3797ZM75.7351 9.716C76.1831 9.796 76.5631 10.032 76.8751 10.424C77.1871 10.816 77.3431 11.26 77.3431 11.756C77.3431 12.18 77.2311 12.564 77.0071 12.908C76.7911 13.244 76.4751 13.512 76.0591 13.712C75.6431 13.904 75.1591 14 74.6071 14H71.2711V5.66H74.4511C75.0191 5.66 75.5071 5.756 75.9151 5.948C76.3231 6.14 76.6311 6.4 76.8391 6.728C77.0471 7.048 77.1511 7.408 77.1511 7.808C77.1511 8.288 77.0231 8.688 76.7671 9.008C76.5111 9.328 76.1671 9.564 75.7351 9.716ZM72.6391 9.164H74.3311C74.7791 9.164 75.1271 9.064 75.3751 8.864C75.6311 8.656 75.7591 8.36 75.7591 7.976C75.7591 7.6 75.6311 7.308 75.3751 7.1C75.1271 6.884 74.7791 6.776 74.3311 6.776H72.6391V9.164ZM74.4871 12.884C74.9511 12.884 75.3151 12.772 75.5791 12.548C75.8431 12.324 75.9751 12.012 75.9751 11.612C75.9751 11.204 75.8351 10.88 75.5551 10.64C75.2751 10.4 74.9031 10.28 74.4391 10.28H72.6391V12.884H74.4871ZM84.7817 7.388L80.7257 17.108H79.3097L80.6537 13.892L78.0497 7.388H79.5737L81.4337 12.428L83.3657 7.388H84.7817Z" fill="#919191"/>
<path opacity="0.3" fill-rule="evenodd" clip-rule="evenodd" d="M4.43816 2.57134C4.43816 2.57134 22.2958 12.5382 17.2948 24.8398C4.512 22.8056 4.43816 2.57134 4.43816 2.57134Z" fill="#438E56"/>
<path opacity="0.3" fill-rule="evenodd" clip-rule="evenodd" d="M27.7658 2.57134C27.7658 2.57134 9.90817 12.5382 14.9091 24.8398C27.692 22.8056 27.7658 2.57134 27.7658 2.57134Z" fill="#438E56"/>
<path opacity="0.3" fill-rule="evenodd" clip-rule="evenodd" d="M16.4103 1.42627C16.4103 1.42627 6.21831 18.9585 16.4103 27.0984C26.1855 18.9585 16.4103 1.42627 16.4103 1.42627Z" fill="#438E56"/>
<path d="M5.70496 22.3933C5.70496 21.841 6.15267 21.3933 6.70496 21.3933H26.0984C26.6507 21.3933 27.0984 21.841 27.0984 22.3933V36.5081C27.0984 37.6126 26.203 38.5081 25.0984 38.5081H7.70496C6.60039 38.5081 5.70496 37.6126 5.70496 36.5081V22.3933Z" fill="#438E56"/>
</svg>
